<svg width="602" height="462" viewBox="0 0 602 462" fill="none" xmlns="http://www.w3.org/2000/svg">
<g clip-path="url(#clip0)">
<path opacity="0.1" d="M587.411 314.12C586.872 314.513 586.376 314.896 585.847 315.268C583.897 316.646 581.855 317.891 579.737 318.993C568.637 324.841 554.955 327.698 541.628 329.639C511.739 333.994 481.224 334.841 450.838 335.671C368.737 337.924 286.436 340.172 204.534 334.981C172.174 332.932 139.103 329.504 109.78 318.993C105.576 317.491 101.456 315.834 97.4183 314.023C89.2475 310.352 81.4003 305.883 74.8745 300.547C68.7424 295.545 63.7698 289.798 60.7981 283.265C54.6013 269.66 57.8804 254.378 64.9563 241.042C67.8951 235.647 71.2093 230.465 74.8745 225.534C80.3379 218.025 86.3621 210.732 91.8579 203.229C111.414 176.557 124.174 142.813 106.123 115.457C100.935 107.598 93.4381 100.698 89.2098 92.4938C83.8165 81.9987 84.2318 70.3447 85.9468 59.0248C86.1698 57.5874 86.4053 56.1643 86.6534 54.7556C89.5819 37.9699 95.0938 19.8852 112.088 9.40623C129.74 -1.48237 154.808 -0.932548 176.715 2.93776C210.784 9.01812 242.211 21.6748 273.972 33.1024C305.733 44.53 338.96 54.9712 373.865 56.0924C404.688 57.0843 440.639 49.6617 461.096 30.3695C480.965 11.6325 518.313 10.204 545.231 21.5238C563.708 29.2914 577.493 43.2849 583.307 59.0248C584.484 62.1849 585.332 65.458 585.836 68.7922C586.302 71.8394 586.454 74.9263 586.289 78.0044C586.209 79.5245 586.052 81.0284 585.836 82.5162C581.338 113.576 548.963 138.075 529.283 165.819C519.667 179.371 512.876 195.65 519.489 210.263C529.574 232.531 564.646 240.449 585.826 257.019C589.811 260.035 593.32 263.633 596.235 267.692C606.509 282.441 602.717 302.358 587.411 314.12Z" fill="#7D7C8C"/>
<path d="M139.14 175.112C139.14 175.112 114.332 131.17 76.9455 118.513C61.2565 113.198 47.5631 103.204 38.2004 89.5452C33.7679 83.0601 29.9406 76.1818 26.7667 68.997" stroke="#535461" stroke-width="2" stroke-miterlimit="10"/>
<path d="M3.25751 60.8629C7.51818 64.9758 27.3546 69.2881 27.3546 69.2881C27.3546 69.2881 22.5006 49.6024 18.2292 45.468C16.1759 43.5247 13.4392 42.4683 10.612 42.5279C7.78489 42.5875 5.09511 43.7581 3.1256 45.7861C1.15608 47.8142 0.0655009 50.5362 0.090193 53.3624C0.114885 56.1885 1.25286 58.8911 3.25751 60.8845V60.8629Z" fill="#7D7C8C"/>
<path d="M14.4809 96.4881C20.3002 97.6416 39.2898 90.4562 39.2898 90.4562C39.2898 90.4562 24.4854 76.5705 18.6606 75.417C15.8924 74.9298 13.0433 75.5458 10.724 77.133C8.40468 78.7202 6.79973 81.1523 6.25308 83.908C5.70644 86.6638 6.2616 89.5239 7.79959 91.8754C9.33758 94.227 11.736 95.8828 14.4809 96.4881Z" fill="#7D7C8C"/>
<path d="M55.3347 135.051C60.9437 133.11 73.6718 117.333 73.6718 117.333C73.6718 117.333 53.8893 112.81 48.2858 114.751C46.9108 115.178 45.6357 115.876 44.5361 116.805C43.4365 117.734 42.5348 118.874 41.8846 120.158C41.2343 121.442 40.8488 122.843 40.7508 124.279C40.6528 125.715 40.8444 127.155 41.3142 128.516C41.784 129.876 42.5224 131.128 43.4856 132.197C44.4488 133.267 45.6172 134.132 46.9214 134.742C48.2256 135.351 49.639 135.693 51.0778 135.746C52.5166 135.799 53.9513 135.563 55.297 135.051H55.3347Z" fill="#7D7C8C"/>
<path d="M92.8178 157.254C98.6749 156.284 113.905 142.889 113.905 142.889C113.905 142.889 95.1747 135.089 89.3176 136.054C86.5048 136.517 83.9915 138.079 82.3308 140.395C80.67 142.711 79.9977 145.592 80.4619 148.403C80.926 151.214 82.4886 153.726 84.8058 155.386C87.123 157.046 90.005 157.718 92.8178 157.254Z" fill="#7D7C8C"/>
<path d="M55.8148 75.072C55.8148 81.0015 45.0822 98.213 45.0822 98.213C45.0822 98.213 34.328 81.0122 34.3226 75.0828C34.2906 73.6521 34.5448 72.2294 35.0704 70.8983C35.5961 69.5672 36.3825 68.3544 37.3835 67.3312C38.3846 66.3081 39.5801 65.4951 40.8998 64.9401C42.2195 64.385 43.6369 64.0991 45.0687 64.0991C46.5005 64.0991 47.9179 64.385 49.2376 64.9401C50.5573 65.4951 51.7528 66.3081 52.7539 67.3312C53.7549 68.3544 54.5413 69.5672 55.067 70.8983C55.5926 72.2294 55.8468 73.6521 55.8148 75.0828V75.072Z" fill="#7D7C8C"/>
<path d="M99.3275 101.63C97.5531 107.29 82.1554 120.497 82.1554 120.497C82.1554 120.497 77.0426 100.849 78.7954 95.162C79.7374 92.5582 81.649 90.4185 84.1312 89.1892C86.6135 87.9599 89.4748 87.7359 92.1182 88.564C94.7617 89.3921 96.9832 91.2083 98.3194 93.6337C99.6555 96.0592 100.003 98.9066 99.2897 101.582L99.3275 101.63Z" fill="#7D7C8C"/>
<path d="M138.073 133.191C137.285 139.072 124.341 154.688 124.341 154.688C124.341 154.688 115.982 136.21 116.791 130.329C117.21 127.539 118.709 125.027 120.966 123.333C123.223 121.639 126.056 120.9 128.853 121.276C131.65 121.652 134.187 123.112 135.916 125.341C137.645 127.571 138.427 130.39 138.094 133.191H138.073Z" fill="#7D7C8C"/>
<path opacity="0.25" d="M3.25751 60.8629C7.51818 64.9758 27.3546 69.2881 27.3546 69.2881C27.3546 69.2881 22.5006 49.6024 18.2292 45.468C16.1759 43.5247 13.4392 42.4683 10.612 42.5279C7.78489 42.5875 5.09511 43.7581 3.1256 45.7861C1.15608 47.8142 0.0655009 50.5362 0.090193 53.3624C0.114885 56.1885 1.25286 58.8911 3.25751 60.8845V60.8629Z" fill="black"/>
<path opacity="0.25" d="M14.4809 96.4881C20.3002 97.6416 39.2898 90.4562 39.2898 90.4562C39.2898 90.4562 24.4854 76.5705 18.6606 75.417C15.8924 74.9298 13.0433 75.5458 10.724 77.133C8.40468 78.7202 6.79973 81.1523 6.25308 83.908C5.70644 86.6638 6.2616 89.5239 7.79959 91.8754C9.33758 94.227 11.736 95.8828 14.4809 96.4881Z" fill="black"/>
<path opacity="0.25" d="M55.3347 135.051C60.9437 133.11 73.6718 117.333 73.6718 117.333C73.6718 117.333 53.8893 112.81 48.2858 114.751C46.9108 115.178 45.6357 115.876 44.5361 116.805C43.4365 117.734 42.5348 118.874 41.8846 120.158C41.2343 121.442 40.8488 122.843 40.7508 124.279C40.6528 125.715 40.8444 127.155 41.3142 128.516C41.784 129.876 42.5224 131.128 43.4856 132.197C44.4488 133.267 45.6172 134.132 46.9214 134.742C48.2256 135.351 49.639 135.693 51.0778 135.746C52.5166 135.799 53.9513 135.563 55.297 135.051H55.3347Z" fill="black"/>
<path opacity="0.25" d="M92.8178 157.254C98.6749 156.284 113.905 142.889 113.905 142.889C113.905 142.889 95.1747 135.089 89.3176 136.054C86.5048 136.517 83.9915 138.079 82.3308 140.395C80.67 142.711 79.9977 145.592 80.4619 148.403C80.926 151.214 82.4886 153.726 84.8058 155.386C87.123 157.046 90.005 157.718 92.8178 157.254Z" fill="black"/>
<path opacity="0.25" d="M55.8148 75.072C55.8148 81.0015 45.0822 98.213 45.0822 98.213C45.0822 98.213 34.328 81.0122 34.3226 75.0828C34.2906 73.6521 34.5448 72.2294 35.0704 70.8983C35.5961 69.5672 36.3825 68.3544 37.3835 67.3312C38.3846 66.3081 39.5801 65.4951 40.8998 64.9401C42.2195 64.385 43.6369 64.0991 45.0687 64.0991C46.5005 64.0991 47.9179 64.385 49.2376 64.9401C50.5573 65.4951 51.7528 66.3081 52.7539 67.3312C53.7549 68.3544 54.5413 69.5672 55.067 70.8983C55.5926 72.2294 55.8468 73.6521 55.8148 75.0828V75.072Z" fill="black"/>
<path opacity="0.25" d="M99.3275 101.63C97.5531 107.29 82.1554 120.497 82.1554 120.497C82.1554 120.497 77.0426 100.849 78.7954 95.162C79.7374 92.5582 81.649 90.4185 84.1312 89.1892C86.6135 87.9599 89.4748 87.7359 92.1182 88.564C94.7617 89.3921 96.9832 91.2083 98.3194 93.6337C99.6555 96.0592 100.003 98.9066 99.2897 101.582L99.3275 101.63Z" fill="black"/>
<path opacity="0.25" d="M138.073 133.191C137.285 139.072 124.341 154.688 124.341 154.688C124.341 154.688 115.982 136.21 116.791 130.329C117.21 127.539 118.709 125.027 120.966 123.333C123.223 121.639 126.056 120.9 128.853 121.276C131.65 121.652 134.187 123.112 135.916 125.341C137.645 127.571 138.427 130.39 138.094 133.191H138.073Z" fill="black"/>
<path d="M137.711 174.239C137.711 174.239 132.857 124.011 103.798 97.2966C91.6151 86.0846 83.1477 71.4227 80.1221 55.1222C78.7019 47.3962 77.9942 39.5562 78.0079 31.7009" stroke="#535461" stroke-width="2" stroke-miterlimit="10"/>
<path d="M59.8057 14.7589C62.0278 20.2625 78.4286 32.2022 78.4286 32.2022C78.4286 32.2022 81.9612 12.2308 79.7446 6.7272C78.679 4.0824 76.6058 1.96902 73.9811 0.851981C71.3565 -0.265058 68.3953 -0.294254 65.7491 0.770814C63.1029 1.83588 60.9884 3.90797 59.8708 6.53124C58.7531 9.15451 58.7239 12.1141 59.7896 14.7589H59.8057Z" fill="#7D7C8C"/>
<path d="M55.6044 51.8718C60.4583 55.2839 80.7208 56.3997 80.7208 56.3997C80.7208 56.3997 72.8628 37.7166 68.0089 34.3045C65.6781 32.6604 62.7893 32.0091 59.978 32.4938C57.1667 32.9785 54.6633 34.5596 53.0183 36.8892C51.3734 39.2187 50.7217 42.106 51.2067 44.9158C51.6917 47.7256 53.2736 50.2277 55.6044 51.8718Z" fill="#7D7C8C"/>
<path d="M77.3446 103.663C83.2772 104.164 101.312 94.8979 101.312 94.8979C101.312 94.8979 85.0623 82.7533 79.1459 82.2574C77.7224 82.1059 76.2829 82.2402 74.912 82.6523C73.5411 83.0644 72.2663 83.7461 71.1626 84.6573C70.0589 85.5685 69.1484 86.691 68.4846 87.9587C67.8208 89.2264 67.417 90.6139 67.297 92.0397C67.177 93.4655 67.3432 94.9008 67.7859 96.2616C68.2285 97.6223 68.9386 98.8809 69.8745 99.9636C70.8105 101.046 71.9534 101.931 73.2361 102.566C74.5189 103.202 75.9157 103.574 77.3446 103.663Z" fill="#7D7C8C"/>
<path d="M102.607 139.153C108.356 140.641 127.712 134.56 127.712 134.56C127.712 134.56 113.749 119.845 108.005 118.357C105.263 117.693 102.37 118.133 99.9504 119.582C97.5303 121.031 95.7773 123.373 95.0694 126.102C94.3616 128.832 94.7557 131.73 96.1668 134.171C97.5779 136.613 99.8927 138.402 102.612 139.153H102.607Z" fill="#7D7C8C"/>
<path d="M102.094 49.0364C99.6942 54.4591 82.8996 65.8383 82.8996 65.8383C82.8996 65.8383 80.0412 45.7644 82.4412 40.3363C82.997 39.023 83.8089 37.8335 84.8294 36.837C85.85 35.8406 87.0588 35.0571 88.3854 34.5324C89.712 34.0077 91.1299 33.7522 92.5563 33.7808C93.9827 33.8094 95.3891 34.1216 96.6936 34.699C97.9981 35.2765 99.1745 36.1078 100.154 37.1443C101.134 38.1809 101.897 39.402 102.4 40.7365C102.903 42.0711 103.135 43.4922 103.082 44.9172C103.03 46.3422 102.694 47.7425 102.094 49.0364Z" fill="#7D7C8C"/>
<path d="M131.11 90.909C127.194 95.3669 107.763 101.205 107.763 101.205C107.763 101.205 111.042 81.1955 114.963 76.7377C115.894 75.678 117.024 74.812 118.29 74.189C119.556 73.5661 120.932 73.1984 122.34 73.1071C123.748 73.0157 125.161 73.2025 126.496 73.6566C127.832 74.1108 129.065 74.8234 130.126 75.7539C131.186 76.6844 132.052 77.8146 132.676 79.0798C133.299 80.345 133.667 81.7205 133.758 83.1277C133.85 84.535 133.663 85.9465 133.208 87.2816C132.754 88.6167 132.041 89.8493 131.11 90.909Z" fill="#7D7C8C"/>
<path d="M153.762 135.482C150.655 140.538 132.491 149.573 132.491 149.573C132.491 149.573 132.34 129.294 135.446 124.238C136.938 121.807 139.335 120.069 142.109 119.405C144.883 118.741 147.808 119.205 150.24 120.696C152.671 122.187 154.411 124.583 155.075 127.356C155.74 130.129 155.275 133.052 153.783 135.482H153.762Z" fill="#7D7C8C"/>
<path opacity="0.1" d="M220.131 459.1C253.351 459.1 280.282 455.596 280.282 451.273C280.282 446.95 253.351 443.446 220.131 443.446C186.91 443.446 159.98 446.95 159.98 451.273C159.98 455.596 186.91 459.1 220.131 459.1Z" fill="#7D7C8C"/>
<path opacity="0.1" d="M98.6318 453.796C108.723 453.796 116.904 452.396 116.904 450.669C116.904 448.943 108.723 447.543 98.6318 447.543C88.5402 447.543 80.3594 448.943 80.3594 450.669C80.3594 452.396 88.5402 453.796 98.6318 453.796Z" fill="#7D7C8C"/>
<path d="M102.601 415.858C102.601 415.858 105.562 419.734 101.231 425.561C96.9005 431.388 93.3302 436.342 94.7594 439.991C94.7594 439.991 101.291 429.129 106.625 428.978C111.959 428.828 108.458 422.391 102.601 415.858Z" fill="#7D7C8C"/>
<path opacity="0.1" d="M102.601 415.858C102.86 416.233 103.063 416.644 103.205 417.076C108.394 423.168 111.16 428.854 106.172 428.995C101.528 429.129 95.9513 437.431 94.6192 439.527C94.6632 439.69 94.7154 439.85 94.7756 440.007C94.7756 440.007 101.307 429.146 106.641 428.995C111.975 428.844 108.458 422.391 102.601 415.858Z" fill="black"/>
<path d="M108.108 420.796C108.108 422.16 107.957 423.265 107.768 423.265C107.579 423.265 107.423 422.186 107.423 420.796C107.423 419.405 107.617 420.073 107.806 420.073C107.994 420.073 108.108 419.432 108.108 420.796Z" fill="#FFD037"/>
<path d="M110.001 422.424C108.803 423.076 107.757 423.469 107.665 423.302C107.574 423.135 108.474 422.472 109.672 421.82C110.869 421.168 110.394 421.642 110.486 421.82C110.578 421.998 111.198 421.771 110.001 422.424Z" fill="#FFD037"/>
<path d="M86.95 415.858C86.95 415.858 83.9891 419.734 88.3199 425.561C92.6506 431.388 96.221 436.342 94.7918 439.991C94.7918 439.991 88.2605 429.129 82.9266 428.978C77.5927 428.828 81.1037 422.391 86.95 415.858Z" fill="#7D7C8C"/>
<path opacity="0.1" d="M86.95 415.858C86.6914 416.233 86.4879 416.644 86.346 417.076C81.1576 423.168 78.3909 428.854 83.3797 428.995C88.0286 429.129 93.5999 437.431 94.932 439.527C94.8905 439.691 94.8382 439.851 94.7756 440.007C94.7756 440.007 88.2444 429.146 82.9105 428.995C77.5765 428.844 81.1037 422.391 86.95 415.858Z" fill="black"/>
<path d="M81.4435 420.796C81.4435 422.16 81.5945 423.265 81.7833 423.265C81.972 423.265 82.1284 422.186 82.1284 420.796C82.1284 419.405 81.9343 420.073 81.7455 420.073C81.5567 420.073 81.4435 419.432 81.4435 420.796Z" fill="#FFD037"/>
<path d="M79.5558 422.424C80.7531 423.076 81.794 423.469 81.8857 423.302C81.9774 423.135 81.0767 422.472 79.8794 421.82C78.6821 421.168 79.1567 421.642 79.0651 421.82C78.9734 421.998 78.3585 421.771 79.5558 422.424Z" fill="#FFD037"/>
<path d="M82.3873 439.5C82.3873 439.5 90.6713 439.242 93.1738 437.468C95.6763 435.695 105.913 433.566 106.533 436.417C107.153 439.269 118.981 450.589 109.629 450.664C100.277 450.739 87.8992 449.209 85.4075 447.694C82.9158 446.179 82.3873 439.5 82.3873 439.5Z" fill="#A8A8A8"/>
<path opacity="0.2" d="M109.79 449.672C100.439 449.748 88.061 448.217 85.5693 446.702C83.6709 445.543 82.9158 441.398 82.6624 439.49H82.3873C82.3873 439.49 82.9266 446.163 85.4021 447.683C87.8776 449.203 100.271 450.729 109.623 450.653C112.32 450.653 113.258 449.672 113.204 448.249C112.832 449.122 111.802 449.656 109.79 449.672Z" fill="black"/>
<path d="M359.029 439.182C359.029 439.182 336.226 437.808 338.917 453.78C338.917 453.78 338.378 456.599 340.94 457.882C340.94 457.882 340.983 456.701 343.28 457.1C344.098 457.238 344.929 457.278 345.756 457.219C346.876 457.145 347.941 456.706 348.787 455.968C348.787 455.968 355.194 453.327 357.686 442.853C357.686 442.853 359.53 440.568 359.46 439.98L355.609 441.597C355.609 441.597 356.925 444.373 355.89 446.68C355.89 446.68 355.766 441.7 355.027 441.829C354.876 441.829 353.026 442.789 353.026 442.789C353.026 442.789 355.291 447.64 353.565 451.133C353.565 451.133 354.213 445.204 352.303 443.139L349.607 444.718C349.607 444.718 352.249 449.71 350.459 453.785C350.459 453.785 350.917 447.538 349.04 445.101L346.586 447.015C346.586 447.015 349.067 451.936 347.552 455.316C347.552 455.316 347.358 448.044 346.053 447.494C346.053 447.494 343.895 449.386 343.577 450.19C343.577 450.19 345.276 453.758 344.224 455.645C344.224 455.645 343.577 450.793 343.043 450.793C343.043 450.793 340.886 454.028 340.681 456.184C340.681 456.184 340.778 452.912 342.525 450.465C341.292 450.699 340.154 451.29 339.252 452.163C339.252 452.163 339.586 449.893 343.027 449.694C343.027 449.694 344.796 447.257 345.271 447.112C345.271 447.112 341.819 446.821 339.726 447.748C339.726 447.748 341.565 445.592 345.902 446.578L348.323 444.605C348.323 444.605 343.782 443.98 341.851 444.67C341.851 444.67 344.073 442.772 348.976 444.131L351.618 442.557C351.618 442.557 347.741 441.721 345.432 442.018C345.432 442.018 347.87 440.703 352.39 442.126L354.277 441.279C354.277 441.279 351.435 440.74 350.604 440.638C349.774 440.535 349.731 440.32 349.731 440.32C351.529 440.02 353.376 440.225 355.065 440.913C355.065 440.913 359.099 439.436 359.029 439.182Z" fill="#7D7C8C"/>
<path opacity="0.1" d="M343.324 462C352.236 462 359.46 460.779 359.46 459.272C359.46 457.766 352.236 456.545 343.324 456.545C334.412 456.545 327.187 457.766 327.187 459.272C327.187 460.779 334.412 462 343.324 462Z" fill="#7D7C8C"/>
<path d="M319.081 440.034C319.081 440.034 306.223 439.258 307.755 448.265C307.678 448.722 307.747 449.191 307.952 449.607C308.157 450.022 308.488 450.362 308.898 450.578C308.898 450.578 308.898 449.909 310.22 450.136C310.68 450.211 311.146 450.234 311.611 450.206C312.242 450.16 312.841 449.912 313.321 449.5C313.321 449.5 316.934 448.007 318.342 442.104C318.342 442.104 319.378 440.816 319.34 440.487L317.182 441.409C317.182 441.409 317.921 442.977 317.339 444.276C317.339 444.276 317.269 441.468 316.853 441.533C316.767 441.533 315.726 442.072 315.726 442.072C315.726 442.072 316.999 444.767 316.039 446.778C316.039 446.778 316.4 443.419 315.327 442.266L313.801 443.161C313.801 443.161 315.289 445.974 314.281 448.271C314.281 448.271 314.54 444.745 313.477 443.376L312.097 444.454C312.097 444.454 313.493 447.23 312.636 449.133C312.636 449.133 312.523 445.031 311.789 444.724C311.264 445.166 310.795 445.671 310.392 446.228C310.392 446.228 311.352 448.244 310.759 449.306C310.759 449.306 310.392 446.573 310.096 446.562C310.096 446.562 308.888 448.373 308.764 449.613C308.818 448.463 309.175 447.347 309.799 446.379C309.104 446.51 308.463 446.842 307.955 447.333C307.955 447.333 308.143 446.05 310.112 445.942C310.112 445.942 311.104 444.567 311.374 444.487C311.374 444.487 309.427 444.319 308.246 444.842C308.246 444.842 309.287 443.635 311.73 444.185L313.094 443.069C313.094 443.069 310.533 442.719 309.449 443.107C309.449 443.107 310.7 442.029 313.466 442.816L314.95 441.932C313.807 441.678 312.635 441.577 311.466 441.63C311.466 441.63 312.841 440.891 315.386 441.689L316.465 441.215C316.465 441.215 314.847 440.897 314.4 440.848C313.952 440.8 313.903 440.67 313.903 440.67C314.918 440.501 315.96 440.617 316.913 441.004C316.913 441.004 319.119 440.18 319.081 440.034Z" fill="#7D7C8C"/>
<path opacity="0.1" d="M310.225 452.901C315.25 452.901 319.324 452.213 319.324 451.365C319.324 450.516 315.25 449.828 310.225 449.828C305.2 449.828 301.127 450.516 301.127 451.365C301.127 452.213 305.2 452.901 310.225 452.901Z" fill="#7D7C8C"/>
<path d="M343.55 420.947C343.55 420.947 328.034 420.009 329.862 430.881C329.768 431.433 329.851 432 330.099 432.501C330.347 433.003 330.747 433.413 331.243 433.673C331.243 433.673 331.243 432.87 332.834 433.134C333.39 433.223 333.954 433.25 334.516 433.215C335.279 433.161 336.003 432.862 336.582 432.364C336.582 432.364 340.945 430.563 342.639 423.432C342.639 423.432 343.895 421.879 343.847 421.48L341.226 422.596C341.226 422.596 342.121 424.488 341.42 426.057C341.42 426.057 341.333 422.666 340.826 422.747C340.729 422.747 339.467 423.399 339.467 423.399C339.467 423.399 341.01 426.693 339.845 429.081C339.845 429.081 340.287 425.027 338.987 423.637L337.143 424.715C337.143 424.715 338.944 428.111 337.725 430.887C337.725 430.887 338.038 426.634 336.755 424.957L335.083 426.256C335.083 426.256 336.776 429.604 335.746 431.905C335.746 431.905 335.611 426.957 334.721 426.58C334.721 426.58 333.26 427.868 333.039 428.396C333.039 428.396 334.198 430.827 333.475 432.11C333.475 432.11 333.039 428.817 332.677 428.801C332.677 428.801 331.221 430.957 331.059 432.482C331.129 431.098 331.56 429.756 332.311 428.59C331.471 428.75 330.697 429.151 330.083 429.744C330.083 429.744 330.31 428.197 332.672 428.062C332.672 428.062 333.875 426.407 334.198 426.305C334.198 426.305 331.847 426.111 330.423 426.741C330.423 426.741 331.674 425.281 334.63 425.944L336.28 424.601C336.28 424.601 333.184 424.176 331.874 424.645C331.874 424.645 333.384 423.356 336.728 424.294L338.524 423.216C338.524 423.216 335.886 422.677 334.317 422.855C334.317 422.855 335.973 421.96 339.052 422.925L340.336 422.354C340.336 422.354 338.399 421.971 337.833 421.912C337.267 421.852 337.24 421.696 337.24 421.696C338.464 421.492 339.72 421.632 340.87 422.1C340.87 422.1 343.604 421.119 343.55 420.947Z" fill="#7D7C8C"/>
<path opacity="0.1" d="M332.866 436.476C338.933 436.476 343.852 435.646 343.852 434.622C343.852 433.598 338.933 432.768 332.866 432.768C326.799 432.768 321.88 433.598 321.88 434.622C321.88 435.646 326.799 436.476 332.866 436.476Z" fill="#7D7C8C"/>
<path d="M586.84 315.16V51.4998H73.7527V300.035C80.3055 305.501 88.185 310.099 96.4043 313.877C100.453 315.742 104.588 317.448 108.809 318.993H580.718L586.84 315.16Z" fill="url(#paint0_linear)"/>
<path d="M585.847 315.268V59.0464H74.8745V300.59C81.4003 305.905 89.2475 310.374 97.4183 314.066C101.452 315.863 105.573 317.519 109.78 319.036H579.737L585.847 315.268Z" fill="white"/>
<path d="M585.847 52.2491H74.8799V65.8006H585.847V52.2491Z" fill="#5A5773"/>
<path d="M85.0839 62.5286C87.02 62.5286 88.5895 60.9599 88.5895 59.0248C88.5895 57.0897 87.02 55.5211 85.0839 55.5211C83.1478 55.5211 81.5783 57.0897 81.5783 59.0248C81.5783 60.9599 83.1478 62.5286 85.0839 62.5286Z" fill="white"/>
<path d="M94.5221 62.5286C96.4582 62.5286 98.0277 60.9599 98.0277 59.0248C98.0277 57.0897 96.4582 55.5211 94.5221 55.5211C92.586 55.5211 91.0165 57.0897 91.0165 59.0248C91.0165 60.9599 92.586 62.5286 94.5221 62.5286Z" fill="white"/>
<path d="M103.96 62.5286C105.896 62.5286 107.466 60.9599 107.466 59.0248C107.466 57.0897 105.896 55.5211 103.96 55.5211C102.024 55.5211 100.455 57.0897 100.455 59.0248C100.455 60.9599 102.024 62.5286 103.96 62.5286Z" fill="white"/>
<path d="M289.86 95.5825H205.456V148.592H289.86V95.5825Z" fill="#7D7C8C"/>
<path opacity="0.2" d="M172.994 95.5825H88.5895V148.592H172.994V95.5825Z" fill="#5A5773"/>
<path opacity="0.2" d="M406.727 95.5825H322.322V148.592H406.727V95.5825Z" fill="#5A5773"/>
<path opacity="0.2" d="M172.994 171.366H88.5895V224.375H172.994V171.366Z" fill="#5A5773"/>
<path opacity="0.2" d="M289.86 171.366H205.456V224.375H289.86V171.366Z" fill="#5A5773"/>
<path opacity="0.2" d="M406.727 171.366H322.322V224.375H406.727V171.366Z" fill="#5A5773"/>
<path opacity="0.2" d="M172.994 247.144H88.5895V300.153H172.994V247.144Z" fill="#5A5773"/>
<path opacity="0.2" d="M289.86 247.144H205.456V300.153H289.86V247.144Z" fill="#5A5773"/>
<path opacity="0.2" d="M406.727 247.144H322.322V300.153H406.727V247.144Z" fill="#5A5773"/>
<path d="M269.177 142.015L263.352 144.074L261.238 140.571C259.62 137.876 257.377 134.188 255.721 131.509C252.798 126.798 256.622 119.618 256.622 119.618C256.622 119.618 257.312 112.411 259.771 110.19C262.231 107.97 262.916 119.618 262.916 119.618C272.791 124.103 267.5 134.652 267.5 134.652L268.46 138.835L269.177 142.015Z" fill="#EFB7B9"/>
<path opacity="0.1" d="M269.177 142.015L263.352 144.074L261.238 140.571V140.263C261.238 140.263 264.577 137.973 268.471 138.835L269.177 142.015Z" fill="black"/>
<path d="M259.771 165.625L262.689 163.157L261.227 140.937C261.227 140.937 268.778 135.773 274.365 143.853C274.365 143.853 274.139 148.791 274.365 150.139C274.592 151.486 272.796 152.834 274.365 154.176C275.935 155.518 274.365 160.014 274.365 160.014C274.365 160.014 276.14 163.156 277.262 164.051C278.383 164.946 279.511 172.358 277.262 173.927C275.013 175.495 270.795 179.09 270.795 180.659C270.795 182.228 265.402 186.049 265.402 186.049L260.667 179.791L259.771 165.625Z" fill="#FF6484"/>
<path d="M196.67 300.504C185.787 295.89 188.203 284.618 190.252 278.942C190.662 277.792 191.143 276.669 191.692 275.579L197.797 271.875C197.797 271.875 199.043 275.05 200.375 279.309C203.466 289.216 207.02 304.897 196.67 300.504Z" fill="#EFB7B9"/>
<path d="M211.631 403.347C210.894 404.782 210.35 406.308 210.013 407.886C209.474 410.424 209.239 413.017 209.312 415.61C209.355 417.405 209.506 418.58 209.506 418.58L197.382 426.914C197.382 426.914 197.452 425.938 197.571 424.504C197.884 420.688 198.536 413.605 199.151 412.689C199.577 412.053 199.874 409.498 200.063 407.126C200.251 404.754 200.327 402.673 200.327 402.673C200.327 402.673 214.916 397.207 211.631 403.347Z" fill="#EFB7B9"/>
<path d="M240.264 409.325C240.264 409.325 240.264 411.643 240.178 414.338C240.091 417.033 239.93 420.214 239.59 421.696C239.277 423.054 239.255 425.55 239.315 427.852C239.396 430.547 239.59 432.973 239.59 432.973C239.59 432.973 227.212 421.276 228.474 420.348C228.814 420.1 229.148 419.103 229.456 417.777C229.833 416.16 230.173 414.004 230.427 412.171C230.729 409.988 230.917 408.231 230.917 408.231L240.264 409.325Z" fill="#EFB7B9"/>
<path opacity="0.1" d="M211.631 403.347C210.894 404.782 210.35 406.308 210.013 407.886C206.695 407.799 203.383 407.545 200.09 407.126C200.273 404.808 200.354 402.673 200.354 402.673C200.354 402.673 214.916 397.207 211.631 403.347Z" fill="black"/>
<path opacity="0.1" d="M240.264 409.325C240.264 409.325 240.264 411.643 240.178 414.338C236.316 415.324 232.347 413.352 230.427 412.182C230.729 409.999 230.917 408.242 230.917 408.242L240.264 409.325Z" fill="black"/>
<path d="M265.607 294.671C260.667 305.452 258.644 318.238 258.644 318.238L256.848 329.019C256.848 329.019 257.749 333.73 256.848 335.525C255.948 337.32 254.152 340.242 254.152 340.242C254.152 340.242 255.5 351.238 254.152 352.359C252.803 353.481 254.152 360.213 254.152 360.213L249.659 382.853L243.37 412.026C237.308 416.969 229.24 410.683 229.24 410.683L231.02 391.607C231.02 391.607 233.717 358.186 232.595 356.817C231.473 355.448 233.042 351.206 233.042 351.206C233.042 351.206 234.617 347.163 233.495 345.594C232.374 344.026 233.717 340.657 233.717 340.657C233.717 340.657 233.269 326.965 234.617 323.823C235.966 320.68 234.617 301.242 234.617 301.242L234.078 295.189L233.765 291.836L233.738 291.507C233.738 291.507 233.533 292.849 233.199 294.93C232.206 301.264 230.092 314.389 229.256 317.09C228.688 319.036 227.916 320.917 226.953 322.701C226.953 322.701 228.118 329.434 226.953 331.229C225.788 333.024 226.775 335.045 226.775 335.045C226.775 335.045 227.897 340.657 224.526 342.899C221.156 345.142 224.526 346.268 224.526 346.268C224.526 346.268 222.056 351.659 221.161 353.896C220.266 356.133 221.161 359.286 221.161 359.286L219.365 377.462C219.365 377.462 217.79 385.09 218.017 390.254C218.243 395.418 215.994 407.309 215.994 407.309C215.994 407.309 198.704 407.309 196.039 405.288C193.375 403.266 200.489 383.548 200.489 383.548C200.489 383.548 202.511 348.985 202.058 348.09C201.605 347.195 202.058 340.457 203.633 339.115C205.208 337.773 203.633 335.072 203.633 335.072C203.633 335.072 203.185 329.682 203.633 328.34C204.081 326.998 203.563 322.502 203.563 322.502C203.563 322.502 202.058 311.506 201.837 305.22C201.616 298.935 200.489 284.802 200.489 284.802C200.489 284.802 201.664 276.058 201.842 271.897C201.907 270.366 202.592 268.452 203.46 266.652C204.432 264.619 205.55 262.659 206.804 260.787C206.804 260.787 260.009 245.069 262.241 246.632C262.835 247.047 263.698 249.866 264.55 253.947C266.923 265.348 269.242 286.747 265.607 294.671Z" fill="#444053"/>
<path d="M232.827 157.502C241.384 157.502 248.321 150.568 248.321 142.015C248.321 133.462 241.384 126.529 232.827 126.529C224.269 126.529 217.332 133.462 217.332 142.015C217.332 150.568 224.269 157.502 232.827 157.502Z" fill="#A1616A"/>
<path opacity="0.1" d="M264.55 253.958C262.765 254.874 261.567 255.505 261.567 255.505C261.567 255.505 236.419 267.401 229.267 266.728C223.734 266.188 209.609 266.496 203.455 266.647C204.427 264.614 205.544 262.654 206.799 260.782C206.799 260.782 260.009 245.069 262.241 246.632C262.835 247.058 263.698 249.866 264.55 253.958Z" fill="black"/>
<path d="M222.046 166.746C222.046 166.746 207.694 169.01 204.307 171.231C200.92 173.452 194.211 177.743 194.211 186.944C194.211 196.146 192.642 205.574 191.741 208.263C190.84 210.953 205.887 232.725 205.887 232.725L200.494 265.72C200.494 265.72 222.067 265.046 229.251 265.72C236.435 266.393 261.573 254.497 261.573 254.497C261.573 254.497 276.393 246.643 279.538 246.411C282.682 246.179 273.249 229.13 273.249 229.13C273.249 229.13 258.65 201.531 261.12 197.041C263.59 192.55 265.402 186.044 265.402 186.044L262.705 163.156C262.705 163.156 258.666 161.809 255.295 164.278C251.924 166.746 240.474 165.399 240.474 165.399L222.046 166.746Z" fill="#FF6484"/>
<path opacity="0.1" d="M197.684 206.695L192.054 208.263L190.495 229.383C190.495 229.383 192.517 234.994 190.495 236.789C188.473 238.584 188.025 276.964 188.025 276.964C188.025 276.964 194.54 281.675 202.171 278.085C202.171 278.085 201.05 273.821 204.42 258.335C207.791 242.848 207.786 234.994 207.786 234.994C207.786 234.994 207.786 215.691 209.361 212.549C210.935 209.406 209.361 201.552 209.361 201.552C209.361 201.552 206.216 197.288 206.437 195.72C206.659 194.151 197.684 206.695 197.684 206.695Z" fill="black"/>
<path opacity="0.1" d="M200.375 279.325C197.069 280.438 193.47 280.307 190.252 278.958C190.662 277.808 191.143 276.685 191.692 275.595L197.797 271.892C197.797 271.892 199.065 275.066 200.375 279.325Z" fill="black"/>
<path d="M197.344 206.695L191.73 208.263L190.161 229.383C190.161 229.383 192.183 234.994 190.161 236.789C188.138 238.584 187.691 276.964 187.691 276.964C187.691 276.964 194.211 281.67 201.837 278.064C201.837 278.064 200.715 273.8 204.081 258.313C207.446 242.827 207.451 234.973 207.451 234.973C207.451 234.973 207.451 215.67 209.021 212.527C210.59 209.385 209.021 201.531 209.021 201.531C209.021 201.531 205.877 197.267 206.103 195.698C206.33 194.13 197.344 206.695 197.344 206.695Z" fill="#FF6484"/>
<path opacity="0.1" d="M254.831 210.058C254.831 210.058 251.913 235.194 243.376 239.91C243.376 239.91 262.463 234.525 254.831 210.058Z" fill="black"/>
<path opacity="0.1" d="M211.944 212.306C211.944 212.306 222.493 217.465 220.034 221.055C217.575 224.645 211.944 212.306 211.944 212.306Z" fill="black"/>
<path opacity="0.1" d="M211.944 222.629C211.944 222.629 218.68 229.588 217.337 232.056C215.994 234.525 211.944 222.629 211.944 222.629Z" fill="black"/>
<path opacity="0.1" d="M266.281 164.951C266.281 164.951 268.924 169.436 269.177 172.358C269.431 175.279 266.281 164.951 266.281 164.951Z" fill="black"/>
<path opacity="0.1" d="M266.281 158.893C266.281 158.893 267.608 157.766 270.995 158.893C274.382 160.019 266.281 158.893 266.281 158.893Z" fill="black"/>
<path opacity="0.1" d="M253.316 290.068C247.752 290.857 242.078 290.131 236.893 287.966L234.062 295.21L233.749 291.858C234.213 289.044 235.113 286.031 236.893 285.27C236.893 285.27 243.128 290.235 253.316 290.068Z" fill="black"/>
<path opacity="0.1" d="M207.252 299.496C207.252 299.496 221.064 302.358 224.936 301.851L207.252 299.496Z" fill="black"/>
<path opacity="0.1" d="M208.686 303.113C208.686 303.113 214.581 302.859 217.526 304.04L208.686 303.113Z" fill="black"/>
<path opacity="0.1" d="M209.361 305.555C212.05 306.126 214.78 306.486 217.526 306.633L209.361 305.555Z" fill="black"/>
<path opacity="0.1" d="M209.021 336.441C209.274 336.274 220.81 333.579 222.245 335.514L209.021 336.441Z" fill="black"/>
<path opacity="0.1" d="M209.021 339.978C209.021 339.978 219.041 338.797 219.295 339.978C219.548 341.158 209.021 339.978 209.021 339.978Z" fill="black"/>
<path opacity="0.1" d="M209.021 343.174C209.021 343.174 219.716 340.964 220.978 341.503C222.24 342.042 209.021 343.174 209.021 343.174Z" fill="black"/>
<path opacity="0.1" d="M209.528 418.586L197.404 426.919C197.404 426.919 197.474 425.944 197.593 424.51C200.289 417.88 203.8 414.381 203.8 414.381C206.535 413.67 208.26 414.327 209.334 415.616C209.377 417.405 209.528 418.586 209.528 418.586Z" fill="black"/>
<path d="M210.709 426.073C208.996 429.98 208.133 434.206 208.179 438.471C208.248 441.968 207.36 445.418 205.612 448.449C205.359 448.876 205.075 449.283 204.76 449.667C204.76 449.667 196.336 449.597 193.386 447.155C193.054 446.893 192.784 446.562 192.593 446.185C190.905 442.821 195.877 429.943 195.877 429.943C198.488 420.014 203.789 414.71 203.789 414.71C213.233 412.268 210.709 426.073 210.709 426.073Z" fill="#444053"/>
<path opacity="0.1" d="M205.612 448.422C205.359 448.849 205.075 449.256 204.76 449.64C204.76 449.64 196.336 449.57 193.386 447.128C194.837 442.33 199.464 427.814 201.632 430.283C203.671 432.601 205.089 443.753 205.612 448.422Z" fill="black"/>
<path d="M204.458 431.183L203.87 452.928H206.696C206.696 452.928 207.155 433.851 208.417 431.183C209.679 428.515 204.458 431.183 204.458 431.183Z" fill="#444053"/>
<path opacity="0.1" d="M239.59 432.973C239.59 432.973 227.212 421.276 228.474 420.348C228.814 420.1 229.148 419.103 229.456 417.777C231.834 417.362 235.928 418.354 239.315 427.852C239.396 430.547 239.59 432.973 239.59 432.973Z" fill="black"/>
<path d="M241.44 446.017C241.345 446.058 241.245 446.087 241.143 446.104C239.687 446.357 234.321 446.211 231.317 446.104C230.766 446.086 230.244 445.855 229.861 445.459C229.478 445.064 229.263 444.536 229.262 443.985C229.262 443.177 229.262 442.19 229.197 441.139C229.057 437.819 228.658 433.868 227.466 432.978C225.357 431.361 223.69 425.874 227.466 418.925C227.466 418.925 234.703 413.4 239.924 430.008C239.924 430.008 240.431 434.746 242.702 436.428C244.972 438.11 242.454 445.538 241.44 446.017Z" fill="#444053"/>
<path opacity="0.1" d="M241.132 446.104C239.676 446.357 234.31 446.211 231.306 446.104C230.755 446.086 230.234 445.855 229.85 445.459C229.467 445.064 229.252 444.536 229.251 443.985C229.251 443.177 229.251 442.19 229.186 441.139C230.098 437.118 231.408 432.978 233.096 432.035C233.107 432.029 238.215 431.453 241.132 446.104Z" fill="black"/>
<path d="M228.383 431.544L229.742 449.64H231.468V430.003L228.383 431.544Z" fill="#444053"/>
<path opacity="0.1" d="M232.6 117.338C227.708 117.702 222.972 119.223 218.783 121.774C217.704 122.427 216.625 123.219 216.178 124.389C215.789 125.402 215.951 126.545 215.967 127.623C216.113 136.905 205.758 143.929 206.082 153.206C206.211 156.887 208.061 160.316 208.401 163.987C208.967 170.11 205.343 175.743 201.869 180.815C205.448 181.033 208.972 179.865 211.712 177.554C215.377 189.764 215.85 202.708 213.087 215.152H218.055C218.545 215.117 219.038 215.177 219.505 215.33C219.941 215.537 220.332 215.828 220.654 216.187C225.298 220.807 228.41 227.636 226.635 233.943L237.206 229.981C239.735 229.033 242.303 228.068 244.503 226.504C246.703 224.941 248.548 222.672 249.012 220.009C249.298 218.392 249.206 216.462 250.538 215.524C251.194 215.175 251.895 214.916 252.62 214.753C255.521 213.729 256.805 210.376 257.398 207.358C258.121 203.654 258.347 199.871 258.072 196.108C257.603 189.801 255.737 183.397 257.274 177.242C258.143 173.786 260.073 170.568 260.23 167C260.483 161.119 255.883 156.052 255.198 150.203C254.718 146.128 256.19 142.005 255.71 137.929C255.444 135.826 254.674 133.818 253.465 132.075C252.257 130.333 250.646 128.907 248.769 127.919C247.469 127.251 246.072 126.804 244.789 126.065C241.86 124.367 239.989 121.311 237.33 119.209C234.671 117.106 230.243 116.314 228.242 119.047L232.6 117.338Z" fill="black"/>
<path d="M232.6 116.664C227.708 117.028 222.972 118.549 218.783 121.101C217.704 121.753 216.625 122.545 216.178 123.715C215.789 124.728 215.951 125.871 215.967 126.949C216.113 136.231 205.758 143.255 206.082 152.537C206.211 156.214 208.061 159.642 208.401 163.318C208.967 169.442 205.343 175.075 201.869 180.152C205.447 180.362 208.969 179.195 211.712 176.891C215.376 189.097 215.85 202.038 213.087 214.478H218.055C218.545 214.444 219.038 214.507 219.505 214.662C219.942 214.865 220.333 215.155 220.654 215.513C225.298 220.138 228.41 226.963 226.635 233.269L237.206 229.307C239.735 228.359 242.303 227.394 244.503 225.831C246.703 224.267 248.548 221.998 249.012 219.335C249.298 217.718 249.206 215.788 250.538 214.85C251.194 214.501 251.895 214.242 252.62 214.08C255.521 213.055 256.805 209.703 257.398 206.684C258.127 202.978 258.359 199.191 258.089 195.423C257.619 189.117 255.753 182.713 257.29 176.557C258.159 173.102 260.09 169.884 260.246 166.315C260.499 160.434 255.899 155.367 255.214 149.519C254.734 145.444 256.206 141.325 255.726 137.245C255.459 135.142 254.689 133.134 253.48 131.392C252.272 129.649 250.662 128.223 248.785 127.235C247.485 126.566 246.089 126.119 244.805 125.386C241.877 123.683 240.005 120.626 237.346 118.524C234.687 116.422 230.259 115.629 228.259 118.362L232.6 116.664Z" fill="#925978"/>
<g opacity="0.1">
<path opacity="0.1" d="M215.957 124.707C215.935 124.915 215.924 125.123 215.924 125.332C215.94 125.127 215.951 124.917 215.957 124.707Z" fill="black"/>
<path opacity="0.1" d="M255.155 146.285C255.349 143.428 255.985 140.56 255.748 137.714C255.57 140.571 254.934 143.438 255.155 146.285Z" fill="black"/>
<path opacity="0.1" d="M208.401 160.488C208.088 157.146 206.529 154.02 206.162 150.683C206.089 151.295 206.062 151.911 206.082 152.527C206.211 156.165 208.018 159.567 208.384 163.189C208.474 162.291 208.479 161.387 208.401 160.488Z" fill="black"/>
<path opacity="0.1" d="M257.312 173.765C256.807 175.958 256.625 178.214 256.773 180.46C256.826 179.15 257.007 177.848 257.312 176.573C258.18 173.118 260.111 169.9 260.267 166.331C260.293 165.698 260.264 165.063 260.181 164.434C259.761 167.641 258.083 170.628 257.312 173.765Z" fill="black"/>
<path opacity="0.1" d="M211.712 174.056C209.463 175.94 206.678 177.071 203.752 177.29C203.137 178.25 202.5 179.188 201.869 180.115C205.447 180.325 208.969 179.158 211.712 176.853C213.682 183.406 214.738 190.199 214.851 197.041C215.011 189.262 213.952 181.507 211.712 174.056Z" fill="black"/>
<path opacity="0.1" d="M257.414 203.859C256.821 206.878 255.538 210.231 252.636 211.25C251.91 211.411 251.209 211.673 250.554 212.026C249.222 212.964 249.314 214.904 249.028 216.511C248.564 219.173 246.725 221.437 244.519 222.979C242.313 224.521 239.752 225.513 237.222 226.461L227.137 230.235C227.084 231.246 226.922 232.25 226.651 233.226L237.222 229.264C239.752 228.316 242.319 227.351 244.519 225.787C246.72 224.224 248.564 221.955 249.028 219.292C249.314 217.675 249.222 215.745 250.554 214.807C251.211 214.458 251.911 214.199 252.636 214.036C255.538 213.012 256.821 209.659 257.414 206.641C258.029 203.499 258.284 200.299 258.175 197.1C258.104 199.37 257.849 201.63 257.414 203.859Z" fill="black"/>
<path opacity="0.1" d="M220.67 212.673C220.349 212.312 219.959 212.021 219.521 211.816C219.054 211.663 218.562 211.6 218.071 211.632H213.664C213.492 212.57 213.308 213.508 213.125 214.441H218.092C218.583 214.407 219.076 214.469 219.543 214.624C219.98 214.827 220.371 215.117 220.692 215.476C224.09 218.861 226.662 223.421 227.104 228.1C227.649 222.505 224.748 216.748 220.67 212.673Z" fill="black"/>
</g>
<path opacity="0.1" d="M196.028 231.043C196.028 231.043 200.041 229.361 200.936 231.043C201.832 232.725 196.028 231.043 196.028 231.043Z" fill="black"/>
<path opacity="0.1" d="M197.447 233.927C197.447 233.927 201.459 232.245 202.36 233.927C203.261 235.609 197.447 233.927 197.447 233.927Z" fill="black"/>
<path opacity="0.1" d="M446.135 16.2898C446.135 16.2898 425.614 15.0554 428.035 29.4262C428.035 29.4262 427.555 31.965 429.858 33.1186C429.858 33.1186 429.896 32.0405 431.962 32.4124C432.697 32.5362 433.445 32.5724 434.189 32.5203C435.194 32.4507 436.148 32.0551 436.907 31.3937C436.907 31.3937 442.673 29.0165 444.916 19.5941C444.916 19.5941 446.577 17.535 446.534 17.0067L443.072 18.4891C443.072 18.4891 444.253 20.9848 443.32 23.0601C443.32 23.0601 443.212 18.5753 442.543 18.6831C442.408 18.6831 440.747 19.5456 440.747 19.5456C440.747 19.5456 442.78 23.8956 441.243 27.0598C441.243 27.0598 441.826 21.7017 440.111 19.8636L437.662 21.3136C437.662 21.3136 440.041 25.8038 438.428 29.4693C438.428 29.4693 438.843 23.8471 437.15 21.6586L434.939 23.3781C434.939 23.3781 437.177 27.7821 435.829 30.8223C435.829 30.8223 435.651 24.273 434.475 23.7824C434.475 23.7824 432.544 25.4858 432.253 26.1865C432.253 26.1865 433.779 29.4208 432.83 31.0918C432.83 31.0918 432.247 26.7364 431.751 26.7148C431.751 26.7148 429.826 29.6041 429.626 31.5662C429.72 29.7353 430.291 27.9607 431.282 26.4183C430.171 26.6285 429.147 27.1609 428.337 27.9492C428.337 27.9492 428.634 25.9062 431.757 25.723C431.757 25.723 433.348 23.5345 433.774 23.3997C433.774 23.3997 430.667 23.141 428.785 23.9765C428.785 23.9765 430.441 22.0467 434.345 22.8984L436.503 21.1196C436.503 21.1196 432.415 20.5805 430.678 21.1789C430.678 21.1789 432.673 19.4755 437.091 20.7153L439.464 19.2976C439.464 19.2976 435.98 18.543 433.903 18.8179C433.903 18.8179 436.093 17.6374 440.159 18.9149L441.858 18.1549C441.858 18.1549 439.302 17.6535 438.558 17.5727C437.813 17.4918 437.77 17.287 437.77 17.287C439.387 17.018 441.048 17.2046 442.565 17.826C442.565 17.826 446.194 16.5162 446.135 16.2898Z" fill="#7D7C8C"/>
<path opacity="0.1" d="M416.887 4.63574C416.887 4.63574 399.629 15.7993 410.097 25.9386C410.097 25.9386 411.214 28.2672 413.754 27.836C413.754 27.836 413.15 26.952 415.032 26.0194C415.699 25.6836 416.324 25.2692 416.893 24.785C417.661 24.1337 418.197 23.2501 418.419 22.2677C418.419 22.2677 421.655 16.9312 417.88 8.01552C417.88 8.01552 417.999 5.37423 417.632 4.98612L415.723 8.22036C415.723 8.22036 418.155 9.53022 418.635 11.7511C418.635 11.7511 415.89 8.20958 415.399 8.68932C415.302 8.78635 414.461 10.452 414.461 10.452C414.461 10.452 418.683 12.7483 419.314 16.2035C419.314 16.2035 416.618 11.5408 414.132 11.0827L413.01 13.67C413.01 13.67 417.594 15.8801 418.468 19.7881C418.468 19.7881 415.464 15.0123 412.805 14.2522L412.05 16.9474C412.05 16.9474 416.472 19.1898 417.179 22.4456C417.179 22.4456 413.155 17.2816 411.915 17.5943C411.915 17.5943 411.376 20.1062 411.548 20.8285C411.548 20.8285 414.687 22.5103 414.924 24.4401C414.924 24.4401 411.872 21.2759 411.478 21.54C411.478 21.54 411.64 25.006 412.648 26.7202C411.64 25.1897 411.049 23.4227 410.933 21.5939C410.163 22.4208 409.653 23.4554 409.466 24.5694C409.466 24.5694 408.496 22.7475 410.906 20.753C410.906 20.753 410.906 18.0578 411.149 17.6859C411.149 17.6859 408.496 19.303 407.471 21.1034C407.471 21.1034 407.665 18.5699 411.327 16.9636L412.028 14.2414C412.028 14.2414 408.404 16.2143 407.374 17.7398C407.374 17.7398 407.972 15.1847 412.26 13.5676L413.339 11.018C413.339 11.018 410.103 12.4788 408.571 13.9288C408.571 13.9288 409.65 11.6756 413.673 10.301L414.59 8.68393C414.59 8.68393 412.233 9.79435 411.586 10.1717C410.939 10.549 410.782 10.4089 410.782 10.4089C411.925 9.23381 413.372 8.39956 414.962 7.99935C414.962 7.99935 417.071 4.78667 416.887 4.63574Z" fill="#7D7C8C"/>
<path opacity="0.1" d="M390.622 17.6428C390.622 17.6428 380.305 35.4311 394.236 39.7056C394.236 39.7056 396.291 41.2742 398.356 39.7056C398.356 39.7056 397.423 39.1989 398.674 37.5117C399.109 36.9096 399.471 36.2582 399.753 35.5712C400.143 34.6417 400.221 33.6108 399.974 32.6334C399.974 32.6334 400.433 26.4129 393.017 20.1762C393.017 20.1762 391.938 17.7721 391.399 17.5942L391.167 21.3675C391.167 21.3675 393.928 21.4322 395.368 23.1949C395.368 23.1949 391.313 21.2813 391.108 21.9227C391.065 22.0521 391.07 23.9172 391.07 23.9172C391.07 23.9172 395.918 24.0627 398.076 26.8549C398.076 26.8549 393.545 23.928 391.135 24.6395L391.307 27.4533C391.307 27.4533 396.393 27.3455 398.944 30.4342C398.944 30.4342 394.09 27.5395 391.394 28.0678L391.933 30.8115C391.933 30.8115 396.895 30.8115 398.998 33.3881C398.998 33.3881 393.065 30.6067 392.1 31.4314C392.1 31.4314 392.753 33.9217 393.249 34.4985C393.249 34.4985 396.808 34.574 397.898 36.1857C397.898 36.1857 393.74 34.7465 393.508 35.1669C393.508 35.1669 395.228 38.1802 396.905 39.2475C395.314 38.3457 393.985 37.0453 393.049 35.4742C392.739 36.5597 392.754 37.7122 393.092 38.7893C393.092 38.7893 391.399 37.6088 392.639 34.7357C392.639 34.7357 391.399 32.3316 391.469 31.895C391.469 31.895 389.851 34.5524 389.743 36.6062C389.743 36.6062 388.762 34.2613 391.296 31.1726L390.687 28.4235C390.687 28.4235 388.352 31.8249 388.125 33.6522C388.125 33.6522 387.5 31.1026 390.59 27.7228L390.385 24.9683C390.385 24.9683 388.152 27.7444 387.462 29.7226C387.462 29.7226 387.386 27.2323 390.358 24.1759L390.439 22.3162C390.439 22.3162 388.821 24.37 388.438 25.0114C388.055 25.6529 387.829 25.5612 387.829 25.5612C388.315 23.9946 389.226 22.5934 390.461 21.5131C390.461 21.5131 390.849 17.6913 390.622 17.6428Z" fill="#7D7C8C"/>
<path d="M479.206 220.419C477.68 220.419 476.188 220.871 474.919 221.719C473.65 222.566 472.66 223.771 472.076 225.18C471.492 226.59 471.339 228.141 471.637 229.637C471.935 231.133 472.67 232.508 473.749 233.587C474.829 234.665 476.204 235.4 477.701 235.698C479.198 235.995 480.75 235.843 482.16 235.259C483.57 234.675 484.775 233.686 485.624 232.418C486.472 231.149 486.924 229.658 486.924 228.132C486.919 226.088 486.104 224.13 484.657 222.684C483.211 221.239 481.252 220.424 479.206 220.419ZM456.641 159.89V167.604H464.359L478.252 195.731L472.443 205.18C471.809 206.298 471.477 207.561 471.478 208.845C471.478 214.009 475.011 216.559 479.8 216.559H524.925V209.142H480.744C480.615 209.15 480.486 209.13 480.365 209.085C480.244 209.039 480.135 208.968 480.043 208.877C479.952 208.786 479.881 208.676 479.836 208.555C479.79 208.435 479.77 208.306 479.778 208.177C479.88 207.843 480.017 207.522 480.188 207.218L484.044 201.132H512.796C514.185 201.143 515.55 200.771 516.742 200.057C517.933 199.343 518.904 198.314 519.548 197.084L533.446 173.199C533.717 172.592 533.85 171.933 533.835 171.269C533.829 170.773 533.724 170.282 533.526 169.827C533.327 169.372 533.04 168.962 532.68 168.62C532.319 168.278 531.894 168.012 531.43 167.837C530.965 167.663 530.469 167.583 529.973 167.604H472.853L469.186 159.89H456.641ZM517.202 220.419C515.676 220.42 514.184 220.873 512.916 221.721C511.647 222.57 510.659 223.775 510.076 225.184C509.492 226.594 509.34 228.145 509.639 229.64C509.937 231.136 510.672 232.51 511.752 233.589C512.832 234.667 514.207 235.401 515.704 235.698C517.201 235.995 518.752 235.842 520.162 235.258C521.572 234.674 522.777 233.686 523.625 232.417C524.473 231.149 524.925 229.658 524.925 228.132C524.919 226.087 524.104 224.128 522.656 222.682C521.209 221.237 519.248 220.423 517.202 220.419Z" fill="#7D7C8C"/>
<path d="M507.327 181.23H500.855V174.762H496.001V181.23H489.529V186.082H496.001V192.55H500.855V186.082H507.327V181.23Z" fill="white"/>
</g>
<defs>
<linearGradient id="paint0_linear" x1="330.293" y1="318.993" x2="330.293" y2="51.4998" gradientUnits="userSpaceOnUse">
<stop stop-color="#808080" stop-opacity="0.25"/>
<stop offset="0.54" stop-color="#808080" stop-opacity="0.12"/>
<stop offset="1" stop-color="#808080" stop-opacity="0.1"/>
</linearGradient>
<clipPath id="clip0">
<rect width="602" height="462" fill="white"/>
</clipPath>
</defs>
</svg>
